<?xml version="1.0" encoding="iso-8859-1"?>
<!-- Generator: Adobe Illustrator 19.0.0, SVG Export Plug-In . SVG Version: 6.00 Build 0)  -->
<svg xmlns="http://www.w3.org/2000/svg" xmlns:xlink="http://www.w3.org/1999/xlink" version="1.1" id="Layer_1" x="0px" y="0px" viewBox="0 0 512 512" style="enable-background:new 0 0 512 512;" xml:space="preserve" width="200" height="200">
<g>
	<g>
		<g>
			<g>
				<circle style="fill:#88DBFD;" cx="120.334" cy="107" r="89.339"/>
				<path style="fill:#F2F2F2;" d="M120.334,136.65c-16.348,0-29.648-13.301-29.648-29.649s13.301-29.649,29.648-29.649      c16.349,0,29.65,13.301,29.65,29.649S136.683,136.65,120.334,136.65z"/>
			</g>
			<g>
				<circle style="fill:#88DBFD;" cx="299.012" cy="107" r="89.339"/>
				<path style="fill:#5ABFE9;" d="M299.012,17.661c-9.792,0-19.205,1.598-28.021,4.509C306.6,33.927,332.309,67.451,332.309,107      c0,39.549-25.709,73.073-61.318,84.831c8.816,2.911,18.23,4.509,28.021,4.509c49.341,0,89.339-39.998,89.339-89.339      C388.352,57.66,348.353,17.661,299.012,17.661z"/>
				<path style="fill:#5ABFE9;" d="M120.334,17.661c-9.792,0-19.205,1.598-28.021,4.509C127.922,33.927,153.63,67.451,153.63,107      c0,39.549-25.709,73.073-61.318,84.831c8.816,2.911,18.23,4.509,28.021,4.509c49.341,0,89.339-39.998,89.339-89.339      C209.673,57.66,169.675,17.661,120.334,17.661z"/>
				<path style="fill:#F2F2F2;" d="M299.012,136.65c-16.348,0-29.648-13.301-29.648-29.649s13.301-29.649,29.648-29.649      c16.349,0,29.65,13.301,29.65,29.649S315.361,136.65,299.012,136.65z"/>
			</g>
		</g>
		<g>
			<g>
				<g>
					<path style="fill:#CDD6DF;" d="M489.942,468.833l-95.301-71.927V291.685l95.301-71.927c9.069-6.845,22.058-0.375,22.058,10.987       v227.1C512,469.208,499.012,475.678,489.942,468.833z"/>
					<path style="fill:#ABB2BA;" d="M489.942,219.759l-33.985,25.649v197.775l33.985,25.649c9.069,6.845,22.058,0.375,22.058-10.987       v-227.1C512,219.384,499.011,212.914,489.942,219.759z"/>
					<path style="fill:#426175;" d="M401.725,494.339H17.621C7.889,494.339,0,486.449,0,476.718V211.874       c0-9.732,7.889-17.621,17.621-17.621h384.104c9.732,0,17.621,7.889,17.621,17.621v264.843       C419.346,486.449,411.457,494.339,401.725,494.339z"/>
					<path style="fill:#F2F2F2;" d="M35.028,443.574V245.018c0-6.504,5.273-11.777,11.777-11.777h325.735       c6.504,0,11.777,5.273,11.777,11.777v198.556c0,6.504-5.273,11.777-11.777,11.777H46.806       C40.301,455.351,35.028,450.079,35.028,443.574z"/>
					<path style="fill:#CDD6DF;" d="M372.541,233.241h-43.879v222.111h43.879c6.504,0,11.777-5.273,11.777-11.777V245.018       C384.318,238.514,379.046,233.241,372.541,233.241z"/>
				</g>
			</g>
			<g>
				<circle style="fill:#FD715C;" cx="209.673" cy="345.055" r="83.347"/>
				<path style="fill:#F2F2F2;" d="M185.633,307.763v74.557c0,3.534,3.937,5.644,6.879,3.686l56.037-37.278      c2.633-1.752,2.633-5.62,0-7.372l-56.037-37.278C189.57,302.119,185.633,304.229,185.633,307.763z"/>
			</g>
		</g>
	</g>
</g>
</svg>
