<?xml version="1.0"?>
<svg xmlns="http://www.w3.org/2000/svg" xmlns:xlink="http://www.w3.org/1999/xlink" version="1.1" id="Capa_1" x="0px" y="0px" viewBox="0 0 512 512" style="enable-background:new 0 0 512 512;" xml:space="preserve" width="200px" height="200px" class=""><g><g>
	<path style="fill:#DDDDDD" d="M459.034,229.517V105.931l-52.966-52.966H17.655C7.916,52.994,0.029,60.882,0,70.621v423.724   c0.029,9.739,7.916,17.627,17.655,17.655h423.724c9.739-0.029,17.627-7.916,17.655-17.655V229.517z" data-original="#D1D4D1" class="" data-old_color="#D1D4D1"/>
	<path style="fill:#71C285;" d="M423.724,370.759v44.138c-0.015,4.869-3.958,8.813-8.828,8.828H44.138   c-4.869-0.015-8.813-3.958-8.828-8.828v-44.138L152.629,253.44c3.47-3.442,9.066-3.442,12.535,0l99.663,99.663l64.353-64.353   c3.469-3.442,9.066-3.442,12.535,0L423.724,370.759z" data-original="#71C285" class=""/>
	<path style="fill:#6BA5DB" d="M423.724,97.103v273.655l-82.008-82.008c-3.469-3.442-9.066-3.442-12.535,0l-64.353,64.353   l-99.663-99.663c-3.469-3.442-9.066-3.442-12.535,0L35.31,370.759V97.103c0.015-4.869,3.958-8.813,8.828-8.828h370.759   C419.766,88.29,423.71,92.234,423.724,97.103z" data-original="#90BAE1" class="active-path" data-old_color="#90BAE1"/>
	<circle style="fill:#F3D55B;" cx="102.065" cy="153.935" r="30.349" data-original="#F3D55B" class=""/>
	<g>
		<path style="fill:#194C80" d="M414.974,261.914c-1.739,0-3.44-0.514-4.888-1.478l-70.793-47.138    c-4.029-2.716-5.107-8.176-2.413-12.219c2.694-4.043,8.149-5.151,12.206-2.478l70.793,47.138c3.237,2.16,4.679,6.184,3.549,9.908    S418.866,261.916,414.974,261.914L414.974,261.914z" data-original="#804169" class="" data-old_color="#804169"/>
		<path style="fill:#194C80" d="M341.905,152.892c-3.773,0.002-7.13-2.393-8.354-5.962s-0.047-7.521,2.932-9.836l75.353-58.599    c3.843-2.988,9.379-2.303,12.378,1.532c2.998,3.835,2.328,9.373-1.498,12.382l-75.405,58.625    C345.766,152.239,343.864,152.893,341.905,152.892z" data-original="#804169" class="" data-old_color="#804169"/>
	</g>
	<g>
		<circle style="fill:#194C80" cx="459.034" cy="52.966" r="52.966" data-original="#CC66A1" class="" data-old_color="#CC66A1"/>
		<circle style="fill:#194C80" cx="459.034" cy="282.483" r="52.966" data-original="#CC66A1" class="" data-old_color="#CC66A1"/>
		<circle style="fill:#194C80" cx="300.138" cy="176.552" r="52.966" data-original="#CC66A1" class="" data-old_color="#CC66A1"/>
	</g>
</g></g> </svg>