<svg width="200" height="200" viewBox="0 0 44 59" xmlns="http://www.w3.org/2000/svg"><g id="015---Health-Check" fill="none"><path id="Shape" d="m44 8.83v48.17c-.0032948 1.1032019-.8967981 1.9967052-2 2h-40c-1.10320187-.0032948-1.9967052-.8967981-2-2v-54c.0032948-1.10320187.89679813-1.9967052 2-2 36.506 0 34.426-.085 35 .18.457.208.092-.088 6.41 6.23.3780394.37579638.5904224.88695542.59 1.42z" fill="#f3d55b"/><path id="Shape" d="m43.82 8h-4.82c-1.1032019-.0032948-1.9967052-.89679813-2-2v-4.82c.2196188.10025599.4194552.23912533.59.41 6.295 6.295 6.02 5.948 6.23 6.41z" fill="#f0c419"/><path id="Shape" d="m22 13c-1.341656-2.4703546-3.9298338-4.00613732-6.741-4-4.148 0-7.259 2.5-7.259 7.5s3.111 7 5.185 9 8.815 7.5 8.815 7.5 6.741-5.5 8.815-7.5 5.185-4 5.185-9-3.111-7.5-7.259-7.5c-2.8111662-.00613732-5.399344 1.5296454-6.741 4z" fill="#ff5364"/><path id="Shape" d="m22.73 23.794-2.843-4.977-1.937 2.583c-.2841045.3767214-.7281602.5987493-1.2.6h-2.75c-.5522847 0-1-.4477153-1-1s.4477153-1 1-1h2.5l2.244-2.991c.3032253-.402985.7886636-.6266201 1.2920084-.5952114.5033448.0314088.957216.3136567 1.2079916.7512114l2.821 4.935.955-1.431c.277943-.4176756.7462977-.6687407 1.248-.669h3.732c.5522847 0 1 .4477153 1 1s-.4477153 1-1 1h-3.465l-1.254 1.881c-.2881781.4328987-.7800185.6856447-1.2997624.6679192s-.9932222-.3033929-1.2512376-.7549192z" fill="#ecf0f1"/><path id="Shape" d="m9 44c-.543 0-.565-.151-2.707-2.293-.37897221-.3923789-.37355237-1.0160848.01218142-1.4018186.3857338-.3857338 1.00943969-.3911536 1.40181858-.0121814l1.166 1.165 4.313-6.039c.2075713-.2908142.5545226-.4487996.9101608-.4144447.3556381.0343549.6659332.2558309.814.581s.1114105.7046305-.0961608.9954447l-5 7c-.18771437.2629628-.49091157.4190312-.814.419z" fill="#26b99a"/><g fill="#35495e"><path id="Shape" d="m19 40h-1c-.5522847 0-1-.4477153-1-1s.4477153-1 1-1h1c.5522847 0 1 .4477153 1 1s-.4477153 1-1 1z"/><path id="Shape" d="m36 40h-13c-.5522847 0-1-.4477153-1-1s.4477153-1 1-1h13c.5522847 0 1 .4477153 1 1s-.4477153 1-1 1z"/><path id="Shape" d="m26 44h-8c-.5522847 0-1-.4477153-1-1s.4477153-1 1-1h8c.5522847 0 1 .4477153 1 1s-.4477153 1-1 1z"/></g><path id="Shape" d="m9 54c-.543 0-.565-.151-2.707-2.293-.37897221-.3923789-.37355237-1.0160848.01218142-1.4018186.3857338-.3857338 1.00943969-.3911536 1.40181858-.0121814l1.166 1.165 4.313-6.039c.2075713-.2908142.5545226-.4487996.9101608-.4144447.3556381.034355.6659331.2558309.814.581.1480668.3251691.1114105.7046305-.0961608.9954447l-5 7c-.18771437.2629628-.49091157.4190312-.814.419z" fill="#26b99a"/><path id="Shape" d="m19 50h-1c-.5522847 0-1-.4477153-1-1s.4477153-1 1-1h1c.5522847 0 1 .4477153 1 1s-.4477153 1-1 1z" fill="#35495e"/><path id="Shape" d="m36 50h-13c-.5522847 0-1-.4477153-1-1s.4477153-1 1-1h13c.5522847 0 1 .4477153 1 1s-.4477153 1-1 1z" fill="#35495e"/><path id="Shape" d="m26 54h-8c-.5522847 0-1-.4477153-1-1s.4477153-1 1-1h8c.5522847 0 1 .4477153 1 1s-.4477153 1-1 1z" fill="#35495e"/></g></svg>