<svg id="Camada_1" data-name="Camada 1" xmlns="http://www.w3.org/2000/svg" viewBox="0 0 589 589"><defs><style>.cls-1{fill:#0091fe;}.cls-2{fill:#fefefe;}</style></defs><title>sendingblue</title><path class="cls-1" d="M615.3,109.06h19.53c5.39.55,10.82.54,16.22,1,9.32.89,18.18,3.65,26.94,6.7a154.28,154.28,0,0,1,35.32,17.69,167.39,167.39,0,0,1,17.4,13.59,160.52,160.52,0,0,1,22.22,24.67,7.81,7.81,0,0,0,5.78,3.23c29.32,3.2,55.43,14.26,78.62,32.3a156.09,156.09,0,0,1,41.75,49.38,165,165,0,0,1,15.42,40.06,153.24,153.24,0,0,1,3.75,24.06c.44,5.56.47,11.09.45,16.63a151.45,151.45,0,0,1-11.93,57.81,12.74,12.74,0,0,0,.11,10.86,154.17,154.17,0,0,1,11.93,49.72,159.56,159.56,0,0,1-14.3,79.31,156.68,156.68,0,0,1-37.84,51.43,155.1,155.1,0,0,1-83.15,39.15,18.47,18.47,0,0,0-13.44,8,149,149,0,0,1-46.4,40.43,157.91,157.91,0,0,1-185.39-21.37,155,155,0,0,1-20.7-23.34,6.61,6.61,0,0,0-5-2.92,145.6,145.6,0,0,1-45.6-12,159.37,159.37,0,0,1-40.22-25.26,156.22,156.22,0,0,1-33-39.78,159.68,159.68,0,0,1-20.39-57.84,152.2,152.2,0,0,1-1.84-26.87c.67-21,4.65-41.41,13.23-60.74a7.17,7.17,0,0,0,0-6.31,151.79,151.79,0,0,1-12-43,159.77,159.77,0,0,1,12.33-86.11A159.19,159.19,0,0,1,491.39,176a8.25,8.25,0,0,0,6.18-3.54,157.25,157.25,0,0,1,30-31.11A153.36,153.36,0,0,1,564.11,120a159.6,159.6,0,0,1,29.3-9c6.2-1.26,12.52-1.25,18.81-1.62C613.25,109.27,614.32,109.64,615.3,109.06Z" transform="translate(-332 -109)"/><path class="cls-2" d="M615.3,109.06c-4.24.56-8.49,1.06-12.72,1.68a155.65,155.65,0,0,0-75.16,32.51,150.48,150.48,0,0,0-29.71,31.39,5,5,0,0,1-3.86,2.4c-30.06,3.48-57.13,14.33-81,33.09a153.1,153.1,0,0,0-50.32,69.5c-14.47,40.14-13,79.92,3.73,119.13a7,7,0,0,1,0,6.13c-11.67,27-15.88,55.2-11.91,84.43,5.76,42.51,25.15,77.49,58.75,104.26C435.05,611,460,621.94,487.89,625.43c6.31.79,10.12,3.27,14,8.27,24.88,32,57.51,51.7,97.5,58.47,41.41,7,79.65-1.76,114.5-25.06a147,147,0,0,0,38.9-38.23,5.92,5.92,0,0,1,4.68-2.68,152.84,152.84,0,0,0,68.23-24.3c36.08-23.66,59-56.76,68.46-98.82,7.64-33.9,4.06-66.92-9.94-98.74a6.34,6.34,0,0,1,0-5.62,155.8,155.8,0,0,0,12.69-75.89c-3.35-40.34-19.36-74.88-48.44-103-23.78-23-52.24-37.19-85.1-41.64-7.16-1-11.23-4.16-15.46-9.56-21.49-27.37-49.35-45.33-82.95-54.37a145.73,145.73,0,0,0-27.67-4.66,4,4,0,0,1-2.48-.51q141.75,0,283.48,0c2.09,0,2.68.36,2.68,2.6q-.09,291.81,0,583.64c0,2.4-.58,2.75-2.83,2.75q-291.67-.09-583.33,0c-2.26,0-2.84-.34-2.84-2.75q.12-291.67,0-583.36c0-2.52.64-2.89,3-2.89Q475.14,109.1,615.3,109.06Z" transform="translate(-332 -109)"/><path class="cls-2" d="M615.2,453.83c5.87,32-4.81,73.68-39.39,101.51-36.15,29.09-84.16,32.16-124.63,8.92-37.6-21.59-57.89-68.05-51.12-110.72,30.79,27.3,66.59,41.5,107.49,41.44S584.2,480.87,615.2,453.83Z" transform="translate(-332 -109)"/><path class="cls-2" d="M850.61,349.79c-59.6-54.43-153.88-55.44-215.29-.1a107,107,0,0,1,4.69-52.1,109.31,109.31,0,0,1,28.51-43.82c34.79-33,87.54-39.24,128.37-15.75C840.91,263.35,857.24,312.25,850.61,349.79Z" transform="translate(-332 -109)"/><path class="cls-2" d="M576.44,417.88a105.84,105.84,0,0,1-30.38,17.23c-54,19.75-113.69-4.69-137.63-56.92-14.66-32-13.57-64.18,3.81-94.78,12.65-22.29,31.45-38.47,56.25-48-8.51,39.92-2.89,77.42,18.07,112.19S537.86,405.05,576.44,417.88Z" transform="translate(-332 -109)"/><path class="cls-2" d="M691.1,184.83c-38.12,12.66-67.35,36.27-87.31,70.95s-25.24,71.89-17.49,111.13c-31.88-11.85-61.5-44.33-66.33-86.29-5.82-50.38,22.25-91.34,59.76-109.06C619.94,152.56,662,160.34,691.1,184.83Z" transform="translate(-332 -109)"/><path class="cls-2" d="M773.38,568.08c17.92-83.59-32.49-159.33-104.54-182.5a16,16,0,0,1,4-3.54,103.43,103.43,0,0,1,124.25.69c23.11,17.6,37.26,40.77,42,69.39a103,103,0,0,1-11.58,68.25,104.25,104.25,0,0,1-51.82,46.78C775.05,567.45,774.33,567.71,773.38,568.08Z" transform="translate(-332 -109)"/><path class="cls-2" d="M559.58,618.33c38.4-12.41,67.49-36.16,87.45-70.78s25.24-71.71,17.38-111.15a74.18,74.18,0,0,1,13.13,6.3c30.15,18,48.14,44.33,53.06,79.07,7.78,54.88-29.88,107.55-84.69,118.68-31.12,6.31-59.1-1.38-84.25-20.29C561,619.65,560.39,619,559.58,618.33Z" transform="translate(-332 -109)"/></svg>